<svg version="1.1" id="logo" xmlns="http://www.w3.org/2000/svg" xmlns:xlink="http://www.w3.org/1999/xlink" x="0px" y="0px"
	 viewBox="0 0 618.6 618.6" style="enable-background:new 0 0 618.6 618.6;" xml:space="preserve">
 
	<g>
	<path class="st0" fill="#B700FE" d="M191.2,182.7c0,115.5-2,230.9-2.1,346.4c0.3,10.3,0.5,20.6-0.1,30.9c0.8,13.8,2.4,28.8-4.4,41.4
		c-10.5,17-36,17.7-50.3,4.9c-11.7-9.8-23.8-19.1-35.7-28.6c-18.3-14.8-37.1-28.9-55.3-43.9C8.6,510,7.5,498.1,9.3,457.7
		c1.6-141-0.8-282,0-423c0-14,6.8-24.7,20.3-29.2C48.2-2,65.2,10.2,79.2,21.6c17.9,15,36.3,29.4,54.4,44.3
		C196.1,115.4,192.1,102.2,191.2,182.7z"/>
		<path class="st1" fill="#00F08B"  d="M609.6,356.4c0,75.3,0,150.6,0,225.9c1.3,31.1-37.3,42.9-58.4,23c-32.6-25.7-64.9-51.8-97.2-77.9
		c-9.6-8.2-21.6-15.6-23.6-29c-3.1-126,0.2-252.4-1.3-378.5c-0.1-27.3-0.2-54.7-0.3-82c-0.8-14.7,8.3-30.6,23.7-33.2
		C475-1.8,490.5,17.8,507,29.8c17,13.8,34.1,27.4,51.4,40.9c11.9,9.6,23.6,19.3,35.7,28.7c7.7,6,12.3,13.9,14.6,23.3
		C611.5,200.4,608.7,278.6,609.6,356.4z"/>
		<path class="st2" fill="#EBEBEB" d="M401.1,356.4c0,76.3,0.2,152.6-0.2,228.9c2.2,29.5-37.6,39.4-57.1,21.2c-11.1-8.8-22-18-33.1-26.9
		c-25.5-20-50.3-40.7-75.7-60.8c-8.5-6.9-13.8-15.6-15.1-26.6c-1.5-151.3-0.1-302.8-0.5-454.1c-0.6-19.4,12-34.2,31.7-35.4
		c10.7,0,19.7,3.7,28,10.6c27.3,22.5,55.8,43.5,82.6,66.5c14.8,13.9,40.2,24,39.3,47.7C401.1,203.8,401.1,280.1,401.1,356.4z"/>
</g>
</svg>